<svg width="32" height="32" viewBox="0 0 32 32" fill="none" xmlns="http://www.w3.org/2000/svg">
<path d="M0 5C0 2.23858 2.23858 0 5 0H27C29.7614 0 32 2.23858 32 5V27C32 29.7614 29.7614 32 27 32H5C2.23858 32 0 29.7614 0 27V5Z" fill="#1B212D"/>
<path d="M11.352 28C10.5349 28 9.93858 27.7979 9.56315 27.3936C9.18772 26.9894 9 26.3298 9 25.4149C9 24.2021 9.17667 22.3511 9.53002 19.8617C9.88337 17.3723 10.5569 13.1808 11.5507 7.28723L10.5238 5.34043C12.0035 4.44681 13.3175 4 14.4658 4C15.4375 4 15.9234 4.56383 15.9234 5.69149C15.9234 5.88298 15.824 6.57447 15.6253 7.76596C15.4265 8.93617 15.2057 10.2447 14.9627 11.6915C14.3223 15.5851 13.8475 18.4787 13.5383 20.3723C13.2512 22.266 13.1077 23.5957 13.1077 24.3617C13.1077 24.9787 13.1739 25.5213 13.3064 25.9894C13.4389 26.4574 13.6377 26.8511 13.9027 27.1702C13.0193 27.7234 12.1691 28 11.352 28ZM17.2484 18.234C16.1222 18.234 14.7419 18.0213 13.1077 17.5957L13.5714 15.3936C14.7419 15.5638 16.1442 15.6489 17.7785 15.6489L20.2298 15.0745C20.2298 15.1383 20.2298 15.2128 20.2298 15.2979C20.2298 15.3617 20.2409 15.4255 20.2629 15.4894C20.2629 15.5532 20.2629 15.617 20.2629 15.6809C20.2629 15.7447 20.2629 15.7979 20.2629 15.8404C20.2629 16.6064 19.9979 17.2021 19.4679 17.6277C18.96 18.0319 18.2202 18.234 17.2484 18.234ZM20.8923 8.59574C19.5452 8.59574 18.2422 8.51064 16.9834 8.34042C15.7467 8.14893 14.5321 7.84043 13.3395 7.41489L14.1346 5.5C15.9896 5.5 17.5687 5.41489 18.8716 5.24468C20.1746 5.07447 21.9082 4.77659 24.0725 4.35106C24.205 4.32979 24.3264 4.30851 24.4369 4.28723C24.5694 4.24468 24.7019 4.21277 24.8344 4.19149C24.9448 4.55319 25 5 25 5.53191C25 6.57447 24.6025 7.35106 23.8075 7.8617C23.0345 8.35106 22.0628 8.59574 20.8923 8.59574Z" fill="white"/>
</svg>
